<svg width="1241" height="111" viewBox="0 0 1241 111" fill="none" xmlns="http://www.w3.org/2000/svg">
<path d="M-0.00017868 110.6V9.01222e-05H32.0738L56.2478 99.2241H58.7758L82.9498 9.01222e-05H115.024V110.6H98.4338V12.0081H95.9058L71.8898 110.6H43.1338L19.1178 12.0081H16.5898V110.6H-0.00017868ZM131.46 110.6L163.06 9.01222e-05H193.08L224.522 110.6H206.984L199.716 84.5301H156.424L149.156 110.6H131.46ZM160.69 68.7301H195.45L179.334 10.5861H176.806L160.69 68.7301ZM233.818 110.6L267.788 54.8261L234.292 9.01222e-05H253.884L278.848 42.6601H281.376L306.498 9.01222e-05H326.09L292.594 54.8261L326.564 110.6H306.814L281.376 66.9921H278.848L253.41 110.6H233.818ZM343.884 110.6V9.01222e-05H360.948V110.6H343.884ZM385.582 110.6V9.01222e-05H417.656L441.83 99.2241H444.358L468.532 9.01222e-05H500.606V110.6H484.016V12.0081H481.488L457.472 110.6H428.716L404.7 12.0081H402.172V110.6H385.582ZM525.257 110.6V9.01222e-05H594.935V15.4841H542.321V47.2421H590.511V62.7261H542.321V95.1161H595.725V110.6H525.257ZM652.839 110.6V95.4321H667.691V15.1681H652.839V9.01222e-05H708.929C715.565 9.01222e-05 721.358 1.15876 726.309 3.47609C731.259 5.6881 735.104 8.90076 737.843 13.1141C740.687 17.2221 742.109 22.1201 742.109 27.8081V29.3881C742.109 34.4441 741.161 38.6048 739.265 41.8701C737.369 45.1354 735.051 47.6634 732.313 49.4541C729.679 51.2448 727.151 52.5088 724.729 53.2461V55.7741C727.151 56.4061 729.732 57.6701 732.471 59.5661C735.315 61.3568 737.685 63.8848 739.581 67.1501C741.582 70.4154 742.583 74.6814 742.583 79.9481V81.5281C742.583 87.6374 741.161 92.8514 738.317 97.1701C735.473 101.489 731.523 104.807 726.467 107.124C721.516 109.441 715.775 110.6 709.245 110.6H652.839ZM684.913 95.1161H707.191C712.879 95.1161 717.355 93.7468 720.621 91.0081C723.886 88.2694 725.519 84.4774 725.519 79.6321V78.2101C725.519 73.3648 723.886 69.5728 720.621 66.8341C717.461 64.0954 712.984 62.7261 707.191 62.7261H684.913V95.1161ZM684.913 47.0841H707.191C712.563 47.0841 716.881 45.7674 720.147 43.1341C723.412 40.3954 725.045 36.7088 725.045 32.0741V30.4941C725.045 25.8594 723.412 22.2254 720.147 19.5921C716.987 16.8534 712.668 15.4841 707.191 15.4841H684.913V47.0841ZM754.307 110.6L785.907 9.01222e-05H815.927L847.369 110.6H829.831L822.563 84.5301H779.271L772.003 110.6H754.307ZM783.537 68.7301H818.297L802.181 10.5861H799.653L783.537 68.7301ZM863.933 110.6V9.01222e-05H880.997V95.1161H934.243V110.6H863.933ZM947.348 110.6V95.4321H962.2V15.1681H947.348V9.01222e-05H991.588C1006.33 9.01222e-05 1017.61 3.73943 1025.4 11.2181C1033.3 18.6968 1037.25 29.9674 1037.25 45.0301V65.7281C1037.25 80.7908 1033.3 92.0614 1025.4 99.5401C1017.61 106.913 1006.33 110.6 991.588 110.6H947.348ZM979.422 95.1161H991.746C1001.33 95.1161 1008.44 92.6934 1013.08 87.8481C1017.71 83.0028 1020.03 75.7874 1020.03 66.2021V44.3981C1020.03 34.7074 1017.71 27.4921 1013.08 22.7521C1008.44 18.0121 1001.33 15.6421 991.746 15.6421H979.422V95.1161ZM1048.66 110.6L1080.26 9.01222e-05H1110.28L1141.72 110.6H1124.19L1116.92 84.5301H1073.63L1066.36 110.6H1048.66ZM1077.89 68.7301H1112.65L1096.54 10.5861H1094.01L1077.89 68.7301ZM1158.29 110.6V9.01222e-05H1191.15L1221.17 99.2241H1223.7V9.01222e-05H1240.61V110.6H1207.74L1177.72 11.2181H1175.19V110.6H1158.29Z" fill="#2D2D2A"/>
</svg>
